#Comment line ignore any data following # character 
#Hierarchical Translation and Rotation (.htr) file 
[Header]	
#Header keywords are followed by a single value 
FileType HTR		#Single word string
DataType HTRS		#Translation followed by rotation and scale data
FileVersion 1		#integer
NumSegments 64		#integer
NumFrames 3		#integer
DataFrameRate 30		#integer, data frame rate in this file
EulerRotationOrder ZYX
CalibrationUnits mm
RotationUnits Degrees
GlobalAxisofGravity Y
BoneLengthAxis Y
ScaleFactor 1.00
[SegmentNames&Hierarchy]
#CHILD	PARENT
Pinger_Root GLOBAL
Pelvis Pinger_Root
L_Hip Pelvis
R_Hip Pelvis
Rear_Leg01 Pelvis
Spine1 Pelvis
L_Leg01 L_Hip
L_Leg02 L_Leg01
L_Leg03 L_Leg02
L_Foot L_Leg03
L_Toe1_01 L_Foot
L_Toe2_01 L_Foot
L_Toe3_01 L_Foot
planeAlignerLeft L_Foot
L_Toe1_02 L_Toe1_01
L_Toe1_03 L_Toe1_02
L_Toe2_02 L_Toe2_01
L_Toe2_03 L_Toe2_02
L_Toe3_02 L_Toe3_01
L_Toe3_03 L_Toe3_02
planeLockWeightLeft planeAlignerLeft
R_Leg01 R_Hip
R_Leg02 R_Leg01
R_Leg03 R_Leg02
R_Foot R_Leg03
planeAlignerRight R_Foot
R_Toe1_01 R_Foot
R_Toe2_01 R_Foot
R_Toe3_01 R_Foot
planeLockWeightRight planeAlignerRight
R_Toe1_02 R_Toe1_01
R_Toe1_03 R_Toe1_02
R_Toe2_02 R_Toe2_01
R_Toe2_03 R_Toe2_02
R_Toe3_02 R_Toe3_01
R_Toe3_03 R_Toe3_02
Rear_Leg02 Rear_Leg01
Rear_Leg03 Rear_Leg02
Rear_Leg04 Rear_Leg03
Rear_Foot Rear_Leg04
planeAlignerCenter Rear_Foot
Rear_Toe1_01 Rear_Foot
Rear_Toe2_01 Rear_Foot
Rear_Toe3_01 Rear_Foot
planeLockWeightCenter planeAlignerCenter
Rear_Toe1_02 Rear_Toe1_01
Rear_Toe1_03 Rear_Toe1_02
Rear_Toe2_02 Rear_Toe2_01
Rear_Toe2_03 Rear_Toe2_02
Rear_Toe3_02 Rear_Toe3_01
Rear_Toe3_03 Rear_Toe3_02
Back_Bone Spine1
Head Spine1
Motor_Bone Back_Bone
Ping_Mechanism Back_Bone
BN_LookIK Head
bottomMouth Head
L_Mouth01 Head
L_mouthFront Head
mouthGun Head
R_Mouth01 Head
R_mouthFront Head
TopMouth Head
weapon_bone Head
[BasePosition]
#SegmentName Tx, Ty, Tz, Rx, Ry, Rz, BoneLength
Pinger_Root 0.000000 0.000000 0.000000 -90.000000 0.000000 0.000000 10.000000 
Pelvis 0.000000 0.000000 0.000000 0.000000 0.000000 0.000000 10.000000 
L_Hip 0.000000 0.000000 0.000000 0.000000 0.000000 0.000000 10.000000 
R_Hip 0.000000 0.000000 0.000000 0.000000 0.000000 0.000000 10.000000 
Rear_Leg01 0.000000 0.000000 0.000000 0.000000 0.000000 0.000000 10.000000 
Spine1 0.000000 0.000000 0.000000 0.000000 0.000000 0.000000 10.000000 
L_Leg01 0.000000 0.000000 0.000000 0.000000 0.000000 0.000000 10.000000 
L_Leg02 0.000000 0.000000 0.000000 0.000000 0.000000 0.000000 10.000000 
L_Leg03 0.000000 0.000000 0.000000 0.000000 0.000000 0.000000 10.000000 
L_Foot 0.000000 0.000000 0.000000 0.000000 0.000000 0.000000 10.000000 
L_Toe1_01 0.000000 0.000000 0.000000 0.000000 0.000000 0.000000 10.000000 
L_Toe2_01 0.000000 0.000000 0.000000 0.000000 0.000000 0.000000 10.000000 
L_Toe3_01 0.000000 0.000000 0.000000 0.000000 0.000000 0.000000 10.000000 
planeAlignerLeft 0.000000 0.000000 0.000000 0.000000 0.000000 0.000000 10.000000 
L_Toe1_02 0.000000 0.000000 0.000000 0.000000 0.000000 0.000000 10.000000 
L_Toe1_03 0.000000 0.000000 0.000000 0.000000 0.000000 0.000000 10.000000 
L_Toe2_02 0.000000 0.000000 0.000000 0.000000 0.000000 0.000000 10.000000 
L_Toe2_03 0.000000 0.000000 0.000000 0.000000 0.000000 0.000000 10.000000 
L_Toe3_02 0.000000 0.000000 0.000000 0.000000 0.000000 0.000000 10.000000 
L_Toe3_03 0.000000 0.000000 0.000000 0.000000 0.000000 0.000000 10.000000 
planeLockWeightLeft 0.000000 0.000000 0.000000 0.000000 0.000000 0.000000 10.000000 
R_Leg01 0.000000 0.000000 0.000000 0.000000 0.000000 0.000000 10.000000 
R_Leg02 0.000000 0.000000 0.000000 0.000000 0.000000 0.000000 10.000000 
R_Leg03 0.000000 0.000000 0.000000 0.000000 0.000000 0.000000 10.000000 
R_Foot 0.000000 0.000000 0.000000 0.000000 0.000000 0.000000 10.000000 
planeAlignerRight 0.000000 0.000000 0.000000 0.000000 0.000000 0.000000 10.000000 
R_Toe1_01 0.000000 0.000000 0.000000 0.000000 0.000000 0.000000 10.000000 
R_Toe2_01 0.000000 0.000000 0.000000 0.000000 0.000000 0.000000 10.000000 
R_Toe3_01 0.000000 0.000000 0.000000 0.000000 0.000000 0.000000 10.000000 
planeLockWeightRight 0.000000 0.000000 0.000000 0.000000 0.000000 0.000000 10.000000 
R_Toe1_02 0.000000 0.000000 0.000000 0.000000 0.000000 0.000000 10.000000 
R_Toe1_03 0.000000 0.000000 0.000000 0.000000 0.000000 0.000000 10.000000 
R_Toe2_02 0.000000 0.000000 0.000000 0.000000 0.000000 0.000000 10.000000 
R_Toe2_03 0.000000 0.000000 0.000000 0.000000 0.000000 0.000000 10.000000 
R_Toe3_02 0.000000 0.000000 0.000000 0.000000 0.000000 0.000000 10.000000 
R_Toe3_03 0.000000 0.000000 0.000000 0.000000 0.000000 0.000000 10.000000 
Rear_Leg02 0.000000 0.000000 0.000000 0.000000 0.000000 0.000000 10.000000 
Rear_Leg03 0.000000 0.000000 0.000000 0.000000 0.000000 0.000000 10.000000 
Rear_Leg04 0.000000 0.000000 0.000000 0.000000 0.000000 0.000000 10.000000 
Rear_Foot 0.000000 0.000000 0.000000 0.000000 0.000000 0.000000 10.000000 
planeAlignerCenter 0.000000 0.000000 0.000000 0.000000 0.000000 0.000000 10.000000 
Rear_Toe1_01 0.000000 0.000000 0.000000 0.000000 0.000000 0.000000 10.000000 
Rear_Toe2_01 0.000000 0.000000 0.000000 0.000000 0.000000 0.000000 10.000000 
Rear_Toe3_01 0.000000 0.000000 0.000000 0.000000 0.000000 0.000000 10.000000 
planeLockWeightCenter 0.000000 0.000000 0.000000 0.000000 0.000000 0.000000 10.000000 
Rear_Toe1_02 0.000000 0.000000 0.000000 0.000000 0.000000 0.000000 10.000000 
Rear_Toe1_03 0.000000 0.000000 0.000000 0.000000 0.000000 0.000000 10.000000 
Rear_Toe2_02 0.000000 0.000000 0.000000 0.000000 0.000000 0.000000 10.000000 
Rear_Toe2_03 0.000000 0.000000 0.000000 0.000000 0.000000 0.000000 10.000000 
Rear_Toe3_02 0.000000 0.000000 0.000000 0.000000 0.000000 0.000000 10.000000 
Rear_Toe3_03 0.000000 0.000000 0.000000 0.000000 0.000000 0.000000 10.000000 
Back_Bone 0.000000 0.000000 0.000000 0.000000 0.000000 0.000000 10.000000 
Head 0.000000 0.000000 0.000000 0.000000 0.000000 0.000000 10.000000 
Motor_Bone 0.000000 0.000000 0.000000 0.000000 0.000000 0.000000 10.000000 
Ping_Mechanism 0.000000 0.000000 0.000000 0.000000 0.000000 0.000000 10.000000 
BN_LookIK 0.000000 0.000000 0.000000 0.000000 0.000000 0.000000 10.000000 
bottomMouth 0.000000 0.000000 0.000000 0.000000 0.000000 0.000000 10.000000 
L_Mouth01 0.000000 0.000000 0.000000 0.000000 0.000000 0.000000 10.000000 
L_mouthFront 0.000000 0.000000 0.000000 0.000000 0.000000 0.000000 10.000000 
mouthGun 0.000000 0.000000 0.000000 0.000000 0.000000 0.000000 10.000000 
R_Mouth01 0.000000 0.000000 0.000000 0.000000 0.000000 0.000000 10.000000 
R_mouthFront 0.000000 0.000000 0.000000 0.000000 0.000000 0.000000 10.000000 
TopMouth 0.000000 0.000000 0.000000 0.000000 0.000000 0.000000 10.000000 
weapon_bone 0.000000 0.000000 0.000000 0.000000 0.000000 0.000000 10.000000 
#Beginning of Data. Separated by tabs
#Fr	Tx	Ty	Tz	Rx	Ry	Rz	SF
[Pinger_Root]
40 0.000000 0.000000 0.000000 -0.000075 -0.000000 -0.000020 0.000000
41 0.000000 0.000000 0.000000 -0.000075 -0.000000 -0.000020 0.000000
42 0.000000 0.000000 0.000000 -0.000075 -0.000000 -0.000020 0.000000
[Pelvis]
40 -25.412447 7843.433594 2516.469971 5.859524 -64.294289 12.514261 8237.275391
41 -10.235195 7939.064453 2363.032959 4.048002 -62.560184 13.806182 8283.282227
42 7.028368 8019.247070 2216.228271 2.080246 -60.622410 15.349904 8319.858398
[L_Hip]
40 5.766392 125.831482 872.656799 -178.253311 -81.787712 87.381248 881.701050
41 5.766392 125.831482 872.656799 -178.253342 -81.787758 87.381340 881.701050
42 5.766392 125.831482 872.656799 -178.253311 -81.787758 87.381340 881.701050
[R_Hip]
40 5.765438 125.836372 -872.654907 -1.746713 81.787666 87.381149 881.699829
41 5.765438 125.836372 -872.654907 -1.746678 81.787712 87.381248 881.699829
42 5.765438 125.836372 -872.654907 -1.746690 81.787712 87.381248 881.699829
[Rear_Leg01]
40 -192.298416 -925.602966 -0.001907 167.813873 -18.180971 -34.528278 945.367432
41 -192.298416 -925.602966 -0.001907 168.533646 -16.732960 -30.747534 945.367432
42 -192.298416 -925.602966 -0.001907 171.568253 -16.850218 -32.388779 945.367432
[Spine1]
40 290.604584 5.007505 0.000477 -29.118732 -0.564839 37.683533 290.647736
41 290.604584 5.007505 0.000477 -30.503532 -1.225490 37.121784 290.647736
42 290.604584 5.007505 0.000477 -31.886206 -2.124381 36.402866 290.647736
[L_Leg01]
40 761.932007 -0.002384 -0.069261 76.721848 67.308998 -84.311211 761.932068
41 761.932007 -0.002384 -0.069261 77.565414 59.709991 -81.808968 761.932068
42 761.932007 -0.002384 -0.069261 78.760185 49.314659 -78.951012 761.932068
[L_Leg02]
40 1441.140503 -0.000954 -0.000715 -1.369747 0.716923 -32.846798 1441.140503
41 1441.140503 -0.000954 -0.000715 -1.351450 0.763218 -43.944107 1441.140503
42 1441.140503 -0.000954 -0.000715 -1.292439 0.847051 -57.110394 1441.140503
[L_Leg03]
40 1686.963989 -0.000715 -0.000954 0.115793 -0.009313 78.382278 1686.963989
41 1686.963989 -0.000715 -0.000954 0.122789 -0.008039 77.853615 1686.963989
42 1686.963989 -0.000715 -0.000954 0.129868 -0.004557 75.432838 1686.963989
[L_Foot]
40 3041.570068 -30.715107 11.297464 -45.427567 6.675397 101.908829 3041.746094
41 3041.570068 -30.715107 11.297464 -48.039124 6.072730 105.942604 3041.746094
42 3041.570068 -30.715107 11.297464 -50.415871 5.606661 111.258392 3041.746094
[L_Toe1_01]
40 -188.216690 -224.732346 -21.137953 88.496178 -1.591333 -147.411224 293.899567
41 -188.216690 -224.732346 -21.137953 88.618973 -1.581601 -146.877075 293.899567
42 -188.216690 -224.732346 -21.137953 88.672455 -1.572502 -146.459030 293.899567
[L_Toe2_01]
40 200.746536 -219.926590 148.838394 -75.137146 -10.807603 -58.021400 332.896027
41 200.746536 -219.926590 148.838394 -75.031052 -10.708441 -58.377544 332.896027
42 200.746536 -219.926590 148.838394 -74.925621 -10.608636 -58.733391 332.896027
[L_Toe3_01]
40 188.832520 -219.859131 -191.078659 -108.856316 13.364376 -60.054424 347.140900
41 188.832520 -219.859131 -191.078659 -109.068459 13.217002 -60.390465 347.140900
42 188.832520 -219.859131 -191.078659 -109.279579 13.068410 -60.725723 347.140900
[planeAlignerLeft]
40 0.812531 -811.448792 -0.314951 0.000000 -90.000000 -90.001900 811.449280
41 0.812531 -811.448792 -0.314951 0.000000 -90.000000 -90.001900 811.449280
42 0.812531 -811.448792 -0.314951 0.000000 -90.000000 -90.001900 811.449280
[L_Toe1_02]
40 413.761139 0.000477 0.000000 0.001384 -25.946949 0.001384 413.761139
41 413.761139 0.000477 0.000000 0.001385 -25.900272 0.001385 413.761139
42 413.761139 0.000477 0.000000 0.001385 -25.853588 0.001385 413.761139
[L_Toe1_03]
40 464.317322 0.000358 -0.000089 0.003444 50.154633 0.003444 464.317322
41 464.317322 0.000358 -0.000089 0.003365 49.170017 0.003365 464.317322
42 464.317322 0.000358 -0.000089 0.003289 48.185459 0.003289 464.317322
[L_Toe2_02]
40 342.235809 -0.000477 0.000238 0.001183 -75.301918 0.001183 342.235809
41 342.235809 -0.000477 0.000238 0.001184 -75.107185 0.001184 342.235809
42 342.235809 -0.000477 0.000238 0.001184 -74.912407 0.001184 342.235809
[L_Toe2_03]
40 420.210846 -0.000715 0.000000 -179.983139 86.462166 -179.979645 420.210846
41 420.210846 -0.000715 0.000000 -179.979172 87.082809 -179.975677 420.210846
42 420.210846 -0.000715 0.000000 -179.974609 87.573036 -179.971115 420.210846
[L_Toe3_02]
40 329.270111 0.000954 0.000000 0.001179 -79.062172 0.001179 329.270111
41 329.270111 0.000954 0.000000 0.001179 -78.889420 0.001179 329.270111
42 329.270111 0.000954 0.000000 0.001179 -78.716675 0.001179 329.270111
[L_Toe3_03]
40 439.137451 -0.001907 0.000954 -179.990845 83.962166 -179.987350 439.137451
41 439.137451 -0.001907 0.000954 -179.989731 84.517632 -179.986237 439.137451
42 439.137451 -0.001907 0.000954 -179.988388 85.073158 -179.984879 439.137451
[planeLockWeightLeft]
40 -0.000954 0.000238 -0.000305 -0.011826 -0.004376 0.005620 0.001029
41 -0.000954 0.000238 -0.000305 -0.011826 -0.004376 0.005620 0.001029
42 -0.000954 0.000238 -0.000305 -0.011826 -0.004376 0.005620 0.001029
[R_Leg01]
40 761.455627 -0.001907 -0.000358 135.303604 -14.534073 45.417149 761.455688
41 761.455627 -0.001907 -0.000358 135.026917 -14.074228 44.831108 761.455688
42 761.455627 -0.001907 -0.000358 134.859848 -13.770034 43.935562 761.455688
[R_Leg02]
40 1441.140625 0.000000 -0.000238 0.215880 0.026492 -67.114479 1441.140625
41 1441.140625 0.000000 -0.000238 0.216271 0.023086 -65.307793 1441.140625
42 1441.140625 0.000000 -0.000238 0.221998 0.025741 -60.673527 1441.140625
[R_Leg03]
40 1686.963989 0.000954 0.001431 -0.143151 0.001329 71.370316 1686.963989
41 1686.963989 0.000954 0.001431 -0.150026 -0.001990 69.701866 1686.963989
42 1686.963989 0.000954 0.001431 -0.169874 -0.008048 64.421684 1686.963989
[R_Foot]
40 3041.560059 -30.531288 -11.204481 0.691283 -6.046462 46.684685 3041.734131
41 3041.560059 -30.531288 -11.204481 0.206103 -5.771062 50.184761 3041.734131
42 3041.560059 -30.531288 -11.204481 -0.180434 -5.538419 54.068066 3041.734131
[planeAlignerRight]
40 -0.635147 -812.270569 -0.364304 0.000000 -89.960434 -90.005180 812.270874
41 -0.635147 -812.270569 -0.364304 0.000000 -89.960434 -90.005180 812.270874
42 -0.635147 -812.270569 -0.364304 0.000000 -89.960434 -90.005180 812.270874
[R_Toe1_01]
40 -188.383347 -224.864899 21.052242 91.643364 0.110683 -161.442520 294.101532
41 -188.383347 -224.864899 21.052242 91.605049 0.173852 -159.909103 294.101532
42 -188.383347 -224.864899 21.052242 91.577934 0.299294 -156.948669 294.101532
[R_Toe2_01]
40 200.637817 -220.002121 -148.787384 -104.060562 8.675306 -56.198757 332.857574
41 200.637817 -220.002121 -148.787384 -104.274681 8.182661 -56.815002 332.857574
42 200.637817 -220.002121 -148.787384 -104.693817 7.330815 -59.129166 332.857574
[R_Toe3_01]
40 188.606735 -220.092957 191.126343 -71.666367 -16.192968 -57.900322 347.192566
41 188.606735 -220.092957 191.126343 -71.401283 -15.189030 -58.547665 347.192566
42 188.606735 -220.092957 191.126343 -70.808212 -13.487993 -60.877888 347.192566
[planeLockWeightRight]
40 -0.000477 0.000000 0.000000 -0.011823 -0.004379 -0.000027 0.000477
41 -0.000477 0.000000 0.000000 -0.011823 -0.004379 -0.000027 0.000477
42 -0.000477 0.000000 0.000000 -0.011823 -0.004379 -0.000027 0.000477
[R_Toe1_02]
40 413.762085 0.000477 -0.000119 0.001511 -11.899247 0.001511 413.762085
41 413.762085 0.000477 -0.000119 0.001513 -11.760035 0.001513 413.762085
42 413.762085 0.000477 -0.000119 0.001508 -12.192676 0.001508 413.762085
[R_Toe1_03]
40 464.317810 0.000000 0.001088 -179.999100 65.288162 -179.995529 464.317810
41 464.317810 0.000000 0.001088 -179.999146 64.936096 -179.995575 464.317810
42 464.317810 0.000000 0.001088 -179.999023 66.059296 -179.995438 464.317810
[R_Toe2_02]
40 342.234741 -0.000954 0.000238 -0.004669 -80.754929 -0.004669 342.234741
41 342.234741 -0.000954 0.000238 -0.003500 -80.841591 -0.003500 342.234741
42 342.234741 -0.000954 0.000238 -0.002330 -80.928078 -0.002330 342.234741
[R_Toe2_03]
40 420.210846 0.000715 -0.000268 -179.996750 38.088512 179.999359 420.210846
41 420.210846 0.000715 -0.000268 -179.996689 41.047691 179.999481 420.210846
42 420.210846 0.000715 -0.000268 -179.996582 46.387699 179.999664 420.210846
[R_Toe3_02]
40 329.270355 -0.000477 -0.000954 0.001175 -84.629143 0.001175 329.270355
41 329.270355 -0.000477 -0.000954 0.001175 -84.654526 0.001175 329.270355
42 329.270355 -0.000477 -0.000954 0.001175 -84.679947 0.001175 329.270355
[R_Toe3_03]
40 439.137939 0.000238 0.001431 -179.998459 39.136604 -179.990723 439.137939
41 439.137939 0.000238 0.001431 -179.998138 41.893826 -179.990479 439.137939
42 439.137939 0.000238 0.001431 -179.997437 46.861603 -179.989929 439.137939
[Rear_Leg02]
40 1162.777710 -0.029802 0.005960 3.689407 5.999300 -16.638195 1162.777710
41 1162.777710 -0.029802 0.005960 2.981008 5.579090 -19.745918 1162.777710
42 1162.777710 -0.029802 0.005960 1.965059 4.545315 -29.867970 1162.777710
[Rear_Leg03]
40 607.192505 -0.013351 -0.073195 0.009933 -0.006122 79.648819 607.192505
41 607.192505 -0.013351 -0.073195 0.009912 -0.006157 80.044861 607.192505
42 607.192505 -0.013351 -0.073195 0.009870 -0.006224 80.822052 607.192505
[Rear_Leg04]
40 995.874512 -0.020504 -0.011921 -0.044491 -0.013611 100.135864 995.874573
41 995.874512 -0.020504 -0.011921 -0.044792 -0.012583 102.774414 995.874573
42 995.874512 -0.020504 -0.011921 -0.042433 -0.014469 108.162903 995.874573
[Rear_Foot]
40 3096.176270 -0.067472 -0.041425 161.584747 78.925346 -33.501301 3096.176270
41 3096.176270 -0.067472 -0.041425 171.118164 77.323235 -19.439711 3096.176270
42 3096.176270 -0.067472 -0.041425 178.852829 75.442886 -8.525301 3096.176270
[planeAlignerCenter]
40 0.350077 0.966311 -838.790894 0.000009 0.000003 -179.999985 838.791565
41 0.350077 0.966311 -838.790894 0.000009 0.000003 -179.999985 838.791565
42 0.350077 0.966311 -838.790894 0.000009 0.000003 -179.999985 838.791565
[Rear_Toe1_01]
40 0.653352 83.966492 -371.173737 -0.004780 24.291210 89.859512 380.553192
41 0.653352 83.966492 -371.173737 -0.004091 24.452208 89.861771 380.553192
42 0.653352 83.966492 -371.173737 -0.003392 24.613213 89.864052 380.553192
[Rear_Toe2_01]
40 178.200760 -294.826019 -362.060547 103.674454 59.606209 34.038464 499.765686
41 178.200760 -294.826019 -362.060547 104.643097 59.311840 34.837120 499.765686
42 178.200760 -294.826019 -362.060547 105.595230 59.010704 35.619053 499.765686
[Rear_Toe3_01]
40 -153.359680 -308.780914 -362.060852 -107.436134 63.401600 141.446609 499.952881
41 -153.359680 -308.780914 -362.060852 -108.428932 63.074680 140.547272 499.952881
42 -153.359680 -308.780914 -362.060852 -109.399292 62.740917 139.670563 499.952881
[planeLockWeightCenter]
40 -0.000062 0.000238 0.000000 -0.011814 -0.004373 -0.000015 0.000246
41 -0.000062 0.000238 0.000000 -0.011814 -0.004373 -0.000015 0.000246
42 -0.000062 0.000238 0.000000 -0.011814 -0.004373 -0.000015 0.000246
[Rear_Toe1_02]
40 379.707825 0.194073 0.000477 0.000208 -33.203148 0.005110 379.707855
41 379.707825 0.194073 0.000477 -0.000068 -33.127438 0.006051 379.707855
42 379.707825 0.194073 0.000477 -0.000343 -33.051720 0.006991 379.707855
[Rear_Toe1_03]
40 500.129700 0.165701 0.000119 -0.004349 63.984959 -0.000759 500.129761
41 500.129700 0.165701 0.000119 -0.004242 62.773251 -0.000643 500.129761
42 500.129700 0.165701 0.000119 -0.004144 61.561726 -0.000536 500.129761
[Rear_Toe2_02]
40 340.494507 0.000238 -0.000954 179.998825 -85.649361 179.998825 340.494507
41 340.494507 0.000238 -0.000954 179.998825 -85.641983 179.998825 340.494507
42 340.494507 0.000238 -0.000954 179.998825 -85.634392 179.998825 340.494507
[Rear_Toe2_03]
40 433.103577 0.000000 0.000238 -179.996613 44.473564 179.999603 433.103546
41 433.103577 0.000000 0.000238 -179.996613 44.527035 179.999603 433.103546
42 433.103577 0.000000 0.000238 -179.996613 44.580494 179.999603 433.103546
[Rear_Toe3_02]
40 340.494141 -0.000358 -0.000477 -179.994171 -85.294098 -179.994171 340.494171
41 340.494141 -0.000358 -0.000477 -179.994171 -85.296097 -179.994171 340.494171
42 340.494141 -0.000358 -0.000477 -179.994171 -85.298180 -179.994171 340.494171
[Rear_Toe3_03]
40 433.103577 0.001431 -0.000238 179.993332 40.930733 -179.998978 433.103546
41 433.103577 0.001431 -0.000238 179.993332 40.991219 -179.998978 433.103546
42 433.103577 0.001431 -0.000238 179.993332 41.051704 -179.998993 433.103546
[Back_Bone]
40 1312.175781 -701.934692 0.000954 2.818135 0.183040 -84.749680 1488.125488
41 1312.175781 -701.934692 0.000954 2.895913 0.931575 -84.787048 1488.125488
42 1312.175781 -701.934692 0.000954 2.898737 1.525419 -84.658783 1488.125488
[Head]
40 1406.159424 809.709290 0.001431 5.911086 -2.326159 1.590723 1622.625488
41 1406.159424 809.709290 0.001431 7.166466 -2.199881 1.147762 1622.625488
42 1406.159424 809.709290 0.001431 8.420560 -2.063959 0.707771 1622.625488
[Motor_Bone]
40 1158.364380 -417.834747 0.000477 -1.677312 -0.001287 -105.986946 1231.419434
41 1158.364380 -417.834747 0.000477 -1.397098 1.569559 -104.412888 1231.419434
42 1158.364380 -417.834747 0.000477 -1.033728 2.825328 -103.158394 1231.419434
[Ping_Mechanism]
40 1207.032104 -407.126465 82.335464 0.000103 -0.000053 82.120995 1276.502075
41 1212.863525 -409.953918 86.964874 0.000103 -0.000053 82.120995 1283.223755
42 1218.695068 -412.781403 91.594307 0.000103 -0.000053 82.120995 1289.959473
[BN_LookIK]
40 193.241119 1380.371704 -0.002861 0.000000 89.965736 -31.038179 1393.832153
41 193.241119 1380.371704 -0.002861 0.000000 89.965736 -31.038179 1393.832153
42 193.241119 1380.371704 -0.002861 0.000000 89.965736 -31.038179 1393.832153
[bottomMouth]
40 -435.092926 615.759399 -0.000954 -0.000022 0.000016 73.527184 753.966492
41 -435.092926 615.759399 -0.000954 -0.000022 0.000016 73.527184 753.966492
42 -435.092926 615.759399 -0.000954 -0.000022 0.000016 73.527184 753.966492
[L_Mouth01]
40 554.440979 7.658243 838.222046 150.204178 23.759130 109.605339 1005.027161
41 554.440979 7.658243 838.222046 150.204178 23.759130 109.605339 1005.027161
42 554.440979 7.658243 838.222046 150.204178 23.759130 109.605339 1005.027161
[L_mouthFront]
40 551.629089 934.514771 339.150421 0.000081 2.804060 79.119301 1136.941284
41 551.629089 934.514771 339.150421 0.000081 2.804060 79.119301 1136.941284
42 551.629089 934.514771 339.150421 0.000081 2.804060 79.119301 1136.941284
[mouthGun]
40 55.332661 1627.420898 0.000000 0.000023 0.000009 -11.038128 1628.361328
41 55.332661 1627.420898 0.000000 0.000023 0.000009 -11.038128 1628.361328
42 55.332661 1627.420898 0.000000 0.000023 0.000009 -11.038128 1628.361328
[R_Mouth01]
40 554.442383 7.659197 -838.223938 29.795891 -23.759109 109.605331 1005.029541
41 554.442383 7.659197 -838.223938 29.795891 -23.759109 109.605331 1005.029541
42 554.442383 7.659197 -838.223938 29.795891 -23.759109 109.605331 1005.029541
[R_mouthFront]
40 551.629089 934.514282 -339.151367 0.000029 -2.803930 79.119133 1136.941162
41 551.629089 934.514282 -339.151367 0.000029 -2.803930 79.119133 1136.941162
42 551.629089 934.514282 -339.151367 0.000029 -2.803930 79.119133 1136.941162
[TopMouth]
40 461.269867 -56.106091 -0.008583 -0.000059 -0.000268 92.025169 464.669525
41 461.269867 -56.106091 -0.008583 -0.000059 -0.000268 92.025169 464.669525
42 461.269867 -56.106091 -0.008583 -0.000059 -0.000268 92.025169 464.669525
[weapon_bone]
40 -987.239868 1448.372803 0.001431 0.000000 89.965736 -31.038221 1752.833740
41 -987.239868 1448.372803 0.001431 0.000000 89.965736 -31.038221 1752.833740
42 -987.239868 1448.372803 0.001431 0.000000 89.965736 -31.038221 1752.833740
